<svg width="123" height="32" viewBox="0 0 123 32" fill="none" xmlns="http://www.w3.org/2000/svg">
<g clip-path="url(#clip0_3_758)">
<path fill-rule="evenodd" clip-rule="evenodd" d="M39.3502 24.5066L40.8852 20.9396C42.5432 22.1795 44.7523 22.824 46.9319 22.824C48.5407 22.824 49.5592 22.2041 49.5592 21.2643C49.5346 18.6371 39.9209 20.6936 39.8471 14.1057C39.8225 10.7601 42.7942 8.18205 47.0057 8.18205C49.51 8.18205 52.0093 8.80197 53.7953 10.214L52.3586 13.8548C50.7252 12.8118 48.6932 12.0689 46.7597 12.0689C45.446 12.0689 44.5801 12.6888 44.5801 13.4809C44.6047 16.059 54.2922 14.6469 54.3906 20.9396C54.3906 24.359 51.4927 26.7649 47.3304 26.7649C44.28 26.76 41.4805 26.0417 39.3502 24.5066ZM98.2967 19.6506C97.5292 20.9888 96.0925 21.9039 94.4296 21.9039C91.9745 21.9039 89.9966 19.9212 89.9966 17.471C89.9966 15.0209 91.9794 13.0381 94.4296 13.0381C96.0876 13.0381 97.5292 13.9532 98.2967 15.2915L102.533 12.9397C100.949 10.1156 97.8982 8.18205 94.4296 8.18205C89.298 8.18205 85.1357 12.3444 85.1357 17.4759C85.1357 22.6075 89.298 26.7698 94.4296 26.7698C97.9228 26.7698 100.949 24.8609 102.533 22.0122L98.2967 19.6506ZM56.521 0.472412H61.8247V26.4156H56.521V0.472412ZM104.614 0.472412V26.4156H109.918V18.6321L116.21 26.4156H123L114.995 17.1709L122.405 8.54613H115.91L109.913 15.7047V0.472412H104.614Z" fill="#C4C4C4"/>
<path d="M77.5835 19.6996C76.816 20.9641 75.2317 21.9038 73.4458 21.9038C70.9907 21.9038 69.0128 19.921 69.0128 17.4709C69.0128 15.0207 70.9956 13.038 73.4458 13.038C75.2317 13.038 76.816 14.0269 77.5835 15.3159V19.6996ZM77.5835 8.55092V10.6567C76.7176 9.19544 74.5626 8.177 72.3043 8.177C67.6451 8.177 63.9797 12.2901 63.9797 17.4463C63.9797 22.6024 67.6451 26.7648 72.3043 26.7648C74.5577 26.7648 76.7126 25.7512 77.5835 24.2851V26.3908H82.8872V8.55092H77.5835Z" fill="#C4C4C4"/>
<path fill-rule="evenodd" clip-rule="evenodd" d="M6.5682 19.6751C6.5682 21.4857 5.10696 22.9469 3.2964 22.9469C1.48584 22.9469 0.0245972 21.4808 0.0245972 19.6751C0.0245972 17.8695 1.48584 16.4033 3.2964 16.4033H6.5682V19.6751ZM8.20164 19.6751C8.20164 17.8646 9.66288 16.4033 11.4734 16.4033C13.284 16.4033 14.7452 17.8646 14.7452 19.6751V27.8522C14.7452 29.6627 13.284 31.124 11.4734 31.124C9.66288 31.124 8.20164 29.6627 8.20164 27.8522V19.6751Z" fill="#C4C4C4"/>
<path fill-rule="evenodd" clip-rule="evenodd" d="M11.4734 6.5436C9.66288 6.5436 8.20164 5.08236 8.20164 3.2718C8.20164 1.46124 9.66288 0 11.4734 0C13.284 0 14.7452 1.46124 14.7452 3.2718V6.5436H11.4734ZM11.4734 8.20164C13.284 8.20164 14.7452 9.66288 14.7452 11.4734C14.7452 13.284 13.284 14.7452 11.4734 14.7452H3.2718C1.46124 14.7452 0 13.2791 0 11.4734C0 9.6678 1.46124 8.20164 3.2718 8.20164H11.4734Z" fill="#C4C4C4"/>
<path fill-rule="evenodd" clip-rule="evenodd" d="M24.5804 11.4734C24.5804 9.66288 26.0416 8.20164 27.8522 8.20164C29.6627 8.20164 31.124 9.66288 31.124 11.4734C31.124 13.284 29.6627 14.7452 27.8522 14.7452H24.5804V11.4734ZM22.9469 11.4734C22.9469 13.284 21.4857 14.7452 19.6751 14.7452C17.8646 14.7452 16.4033 13.284 16.4033 11.4734V3.2718C16.4033 1.46124 17.8646 0 19.6751 0C21.4857 0 22.9469 1.46124 22.9469 3.2718V11.4734Z" fill="#C4C4C4"/>
<path fill-rule="evenodd" clip-rule="evenodd" d="M19.6751 24.5804C21.4857 24.5804 22.9469 26.0416 22.9469 27.8522C22.9469 29.6627 21.4857 31.124 19.6751 31.124C17.8646 31.124 16.4033 29.6627 16.4033 27.8522V24.5804H19.6751ZM19.6751 22.9469C17.8646 22.9469 16.4033 21.4857 16.4033 19.6751C16.4033 17.8646 17.8646 16.4033 19.6751 16.4033H27.8767C29.6873 16.4033 31.1485 17.8646 31.1485 19.6751C31.1485 21.4857 29.6873 22.9469 27.8767 22.9469H19.6751Z" fill="#C4C4C4"/>
</g>
<defs>
<clipPath id="clip0_3_758">
<rect width="123" height="31.1239" fill="white"/>
</clipPath>
</defs>
</svg>
