<svg width="150" height="30" viewBox="0 0 150 30" fill="none" xmlns="http://www.w3.org/2000/svg">
<path d="M77.2234 14.4083C75.9848 14.4083 75.092 14.8141 74.1867 15.2276V24.5834C75.0538 24.666 75.5509 24.666 76.3736 24.666C79.3464 24.666 79.754 23.3055 79.754 21.4061V16.9377C79.754 15.5349 79.2881 14.4083 77.2234 14.4083ZM57.48 13.8977C55.4173 13.8977 54.9466 15.0292 54.9466 16.4306V17.218H60.0105V16.4306C60.0105 15.0292 59.5398 13.8977 57.48 13.8977ZM19.2331 23.6357C19.2331 24.7443 19.7566 25.3202 20.9118 25.3202C22.1511 25.3202 22.8849 24.9164 23.7896 24.5015V22.2823H21.0799C19.7969 22.2823 19.2331 22.5209 19.2331 23.6357ZM96.4287 14.4083C94.3626 14.4083 93.6468 15.5349 93.6468 16.9377V22.0568C93.6468 23.463 94.3626 24.5931 96.4287 24.5931C98.4893 24.5931 99.2106 23.463 99.2106 22.0568V16.9377C99.2099 15.5349 98.4886 14.4083 96.4287 14.4083ZM9.10801 29.3758H3.03461V14.6865H0V9.62496H3.03531V6.58499C3.03531 2.45515 4.74805 0 9.61621 0H13.6693V5.06292H11.136C9.24062 5.06292 9.11565 5.77054 9.11565 7.09073L9.10801 9.62427H13.6971L13.1604 14.6858H9.10801V29.3758ZM29.8643 29.4139H24.8025L24.5838 28.1347C22.2726 29.4139 20.2099 29.6213 18.8492 29.6213C15.137 29.6213 13.1611 27.1433 13.1611 23.7162C13.1611 19.6731 15.4667 18.2301 19.5914 18.2301H23.7896V17.356C23.7896 15.2921 23.5528 14.6865 20.3766 14.6865H15.1835L15.691 9.62496H21.3673C28.3363 9.62496 29.8643 11.8248 29.8643 17.3969V29.4139ZM47.0772 15.0576C43.9273 14.5179 43.0227 14.3993 41.5071 14.3993C38.7849 14.3993 37.9622 14.9994 37.9622 17.3095V21.6794C37.9622 23.9896 38.7849 24.5924 41.5071 24.5924C43.0227 24.5924 43.9273 24.4717 47.0772 23.9299V28.8673C44.3182 29.4854 42.5207 29.6477 41.0017 29.6477C34.4812 29.6477 31.8895 26.2213 31.8895 21.2715V17.7258C31.8895 12.7718 34.4812 9.33914 41.0017 9.33914C42.5207 9.33914 44.3182 9.50217 47.0772 10.1231V15.0576ZM66.0833 21.2715H54.9459V21.6794C54.9459 23.9896 55.7693 24.5924 58.4908 24.5924C60.9374 24.5924 62.4307 24.4717 65.5751 23.9299V28.8673C62.5425 29.4854 60.9624 29.6477 57.9875 29.6477C51.4663 29.6477 48.8732 26.2213 48.8732 21.2715V17.2173C48.8732 12.8862 50.797 9.33914 57.4793 9.33914C64.1615 9.33914 66.0833 12.8453 66.0833 17.2173V21.2715ZM85.826 21.3651C85.826 26.1492 84.4576 29.6387 76.1681 29.6387C73.1744 29.6387 71.4186 29.3758 68.1147 28.8679V1.52068L74.186 0.508513V10.0745C75.4981 9.5875 77.1963 9.33983 78.7417 9.33983C84.8137 9.33983 85.8253 12.06 85.8253 16.4313V21.3651H85.826ZM105.288 21.4692C105.288 25.5963 103.583 29.5991 96.4489 29.5991C89.3111 29.5991 87.5741 25.5963 87.5741 21.4692V17.4844C87.5741 13.3552 89.3111 9.35163 96.4489 9.35163C103.583 9.35163 105.288 13.3552 105.288 17.4844V21.4692ZM124.737 21.4692C124.737 25.5963 123.03 29.5991 115.897 29.5991C108.759 29.5991 107.022 25.5963 107.022 21.4692V17.4844C107.022 13.3552 108.759 9.35163 115.897 9.35163C123.03 9.35163 124.737 13.3552 124.737 17.4844V21.4692ZM144.697 29.3758H138.116L132.55 20.0914V29.3758H126.476V1.51999L132.55 0.507819V18.4403L138.116 9.62496H144.697L138.62 19.2451L144.697 29.3758ZM115.876 14.4083C113.814 14.4083 113.098 15.5349 113.098 16.9377V22.0568C113.098 23.463 113.814 24.5931 115.876 24.5931C117.936 24.5931 118.665 23.463 118.665 22.0568V16.9377C118.665 15.5349 117.936 14.4083 115.876 14.4083ZM148.163 25.9112C149.186 25.9112 150 26.7444 150 27.785C150 28.8416 149.185 29.6657 148.155 29.6657C147.131 29.6657 146.3 28.8416 146.3 27.785C146.3 26.7444 147.131 25.9112 148.155 25.9112H148.163ZM148.155 26.2026C147.331 26.2026 146.657 26.9109 146.657 27.785C146.657 28.6751 147.332 29.3744 148.163 29.3744C148.995 29.3827 149.659 28.6751 149.659 27.7933C149.659 26.9116 148.995 26.2026 148.163 26.2026H148.155ZM147.806 28.8756H147.473V26.7846C147.648 26.7604 147.814 26.7361 148.064 26.7361C148.381 26.7361 148.588 26.8027 148.715 26.8936C148.838 26.9858 148.904 27.1267 148.904 27.3258C148.904 27.6019 148.722 27.7677 148.498 27.835V27.8509C148.68 27.8849 148.804 28.05 148.847 28.3574C148.895 28.6827 148.946 28.8069 148.979 28.8749H148.63C148.58 28.8069 148.53 28.6161 148.488 28.3407C148.439 28.075 148.305 27.9751 148.038 27.9751H147.807V28.8756H147.806ZM147.806 27.7184H148.048C148.321 27.7184 148.554 27.6178 148.554 27.3591C148.554 27.1759 148.422 26.9935 148.048 26.9935C147.939 26.9935 147.863 27.0018 147.806 27.0094V27.7184Z" fill="#C4C4C4"/>
</svg>
