<svg width="117" height="36" viewBox="0 0 117 36" fill="none" xmlns="http://www.w3.org/2000/svg">
<path fill-rule="evenodd" clip-rule="evenodd" d="M72.5811 27.5256C65.8074 32.5303 55.9548 35.1967 47.4569 35.1967C35.5516 35.1967 24.8779 30.8074 16.7495 23.5055C16.1337 22.9312 16.6674 22.1518 17.4474 22.603C26.1916 27.6897 36.9884 30.7253 48.1547 30.7253C55.6674 30.7253 63.96 29.1665 71.5958 25.9258C72.7453 25.4745 73.6895 26.7052 72.5811 27.5256Z" fill="#C4C4C4"/>
<path fill-rule="evenodd" clip-rule="evenodd" d="M75.4137 24.2849C74.5516 23.1773 69.6663 23.7516 67.4905 24.0388C66.8337 24.1208 66.7105 23.5465 67.3263 23.1363C71.2263 20.3878 77.5895 21.2082 78.3284 22.1107C79.0674 23.0132 78.1232 29.4126 74.4695 32.4483C73.8947 32.8995 73.3611 32.6534 73.6074 32.038C74.4284 29.9869 76.2758 25.4335 75.4137 24.2849Z" fill="#C4C4C4"/>
<path fill-rule="evenodd" clip-rule="evenodd" d="M67.6137 3.85605V1.18963C67.6137 0.779413 67.901 0.533279 68.2705 0.533279H80.1758C80.5453 0.533279 80.8737 0.820435 80.8737 1.18963V3.44584C80.8737 3.81503 80.5453 4.3073 79.9705 5.12774L73.8126 13.9064C76.1116 13.8654 78.5337 14.1936 80.5863 15.3422C81.0379 15.5883 81.161 15.9985 81.2021 16.3677V19.1982C81.2021 19.6085 80.7916 20.0597 80.34 19.8136C76.6863 17.8855 71.8011 17.6804 67.7779 19.8546C67.3674 20.0597 66.9158 19.6495 66.9158 19.2393V16.5318C66.9158 16.1216 66.9158 15.3832 67.3674 14.7269L74.5105 4.51241H68.3116C67.9421 4.51241 67.6137 4.22525 67.6137 3.85605ZM24.2211 20.3879H20.6084C20.28 20.3468 19.9926 20.1007 19.9516 19.7725V1.23066C19.9516 0.86146 20.28 0.574304 20.6495 0.574304H24.0158C24.3853 0.574304 24.6316 0.861457 24.6726 1.18963V3.60992H24.7547C25.6168 1.27167 27.3 0.164085 29.5168 0.164085C31.7747 0.164085 33.2116 1.27167 34.1968 3.60992C35.0589 1.27167 37.0705 0.164085 39.2053 0.164085C40.7242 0.164085 42.3663 0.779413 43.3926 2.21518C44.5421 3.77401 44.2958 6.03022 44.2958 8.04029V19.7725C44.2958 20.1417 43.9674 20.4289 43.5979 20.4289H40.0263C39.6568 20.3879 39.3695 20.1007 39.3695 19.7725V9.92729C39.3695 9.14787 39.4516 7.17882 39.2874 6.44043C39 5.20977 38.22 4.84058 37.1526 4.84058C36.2905 4.84058 35.3463 5.41489 34.9768 6.35839C34.6074 7.3019 34.6484 8.86072 34.6484 9.92729V19.7725C34.6484 20.1417 34.32 20.4289 33.9505 20.4289H30.3379C29.9684 20.3879 29.6811 20.1007 29.6811 19.7725V9.92729C29.6811 7.87619 30.0095 4.79955 27.4642 4.79955C24.8779 4.79955 24.96 7.75313 24.96 9.92729V19.7725C24.9189 20.1007 24.6316 20.3879 24.2211 20.3879ZM91.1368 0.164085C96.5147 0.164085 99.4295 4.75854 99.4295 10.6247C99.4295 16.2857 96.2274 20.7981 91.1368 20.7981C85.8821 20.7981 83.0084 16.2036 83.0084 10.4606C82.9674 4.67649 85.8821 0.164085 91.1368 0.164085ZM91.1368 3.97912C88.4684 3.97912 88.3042 7.63007 88.3042 9.88628C88.3042 12.1425 88.2632 16.9831 91.0958 16.9831C93.8874 16.9831 94.0516 13.086 94.0516 10.7067C94.0516 9.14788 93.9695 7.26088 93.5179 5.78409C93.1074 4.47139 92.2863 3.97912 91.1368 3.97912ZM106.367 20.3879H102.755C102.385 20.3468 102.098 20.0597 102.098 19.7315V1.14861C102.139 0.820433 102.426 0.533279 102.796 0.533279H106.162C106.491 0.533279 106.737 0.779418 106.819 1.06657V3.89708H106.901C107.927 1.35372 109.323 0.164085 111.827 0.164085C113.428 0.164085 115.029 0.738386 116.056 2.33824C117 3.81503 117 6.31737 117 8.12233V19.8136C116.959 20.1417 116.672 20.3879 116.302 20.3879H112.689C112.361 20.3468 112.074 20.1007 112.033 19.8136V9.72218C112.033 7.67108 112.279 4.71752 109.775 4.71752C108.913 4.71752 108.092 5.29183 107.681 6.19431C107.188 7.34292 107.106 8.4505 107.106 9.72218V19.7315C107.065 20.1007 106.737 20.3879 106.367 20.3879ZM58.1305 11.5272C58.1305 12.9219 58.1716 14.1115 57.4737 15.3832C56.8989 16.4088 55.9958 17.0241 54.9695 17.0241C53.5737 17.0241 52.7526 15.9575 52.7526 14.3987C52.7526 11.322 55.5032 10.7477 58.1305 10.7477V11.5272ZM61.7842 20.3469C61.5379 20.552 61.2095 20.593 60.9221 20.4289C59.7316 19.4444 59.4853 18.9521 58.8284 18.0086C56.8579 20.0187 55.421 20.634 52.8758 20.634C49.8379 20.634 47.4568 18.747 47.4568 15.014C47.4568 12.0604 49.0579 10.0914 51.3158 9.10685C53.2863 8.24539 56.0368 8.08131 58.1305 7.83518V7.38394C58.1305 6.52248 58.2126 5.49693 57.6789 4.75854C57.2274 4.10219 56.4063 3.81503 55.6674 3.81503C54.2716 3.81503 53.04 4.51241 52.7526 5.9892C52.6705 6.31737 52.4653 6.64554 52.1368 6.64554L48.6474 6.27634C48.36 6.1943 48.0316 5.98919 48.1137 5.53795C48.9347 1.27168 52.7526 0 56.201 0C57.9663 0 60.2653 0.451238 61.6611 1.80496C63.4263 3.44584 63.2621 5.66102 63.2621 8.04029V13.6603C63.2621 15.3422 63.96 16.0806 64.6168 17.0241C64.8632 17.3523 64.9042 17.7625 64.6168 17.9676C63.8368 18.5829 62.5232 19.7315 61.7842 20.3469ZM10.7147 11.5272C10.7147 12.9219 10.7558 14.1115 10.0579 15.3832C9.48316 16.4088 8.58 17.0241 7.55368 17.0241C6.15789 17.0241 5.33684 15.9575 5.33684 14.3987C5.33684 11.322 8.08737 10.7477 10.7147 10.7477V11.5272ZM14.3274 20.3469C14.081 20.552 13.7526 20.593 13.4653 20.4289C12.2747 19.4444 12.0284 18.9521 11.3716 18.0086C9.40105 20.0187 7.96421 20.634 5.41895 20.634C2.38105 20.634 0 18.747 0 15.014C0 12.0604 1.60105 10.0914 3.85894 9.10685C5.82947 8.24539 8.58 8.08131 10.6737 7.83518V7.38394C10.6737 6.52248 10.7558 5.49693 10.2221 4.75854C9.77052 4.10219 8.94947 3.81503 8.21053 3.81503C6.81474 3.81503 5.58316 4.51241 5.29579 5.9892C5.21368 6.31737 5.00842 6.64554 4.68 6.64554L1.19052 6.27634C0.903155 6.1943 0.574739 5.98919 0.656845 5.53795C1.4779 1.27168 5.29579 0 8.74421 0C10.5095 0 12.8084 0.451238 14.2042 1.80496C15.9695 3.44584 15.8053 5.66102 15.8053 8.04029V13.6603C15.8053 15.3422 16.5032 16.0806 17.16 17.0241C17.4063 17.3523 17.4474 17.7625 17.16 17.9676C16.38 18.5829 15.0663 19.7315 14.3274 20.3469Z" fill="#C4C4C4"/>
</svg>
