<svg width="105" height="33" viewBox="0 0 105 33" fill="none" xmlns="http://www.w3.org/2000/svg">
<path fill-rule="evenodd" clip-rule="evenodd" d="M13.2184 0.528564H14.1469C17.371 0.595015 20.5423 1.82277 22.8201 3.99626C21.979 4.80929 21.1206 5.58909 20.2971 6.40193C19.0181 5.30707 17.4761 4.46082 15.794 4.16219C13.3061 3.6644 10.6252 4.11235 8.54018 5.45639C6.26239 6.86649 4.72041 9.25574 4.38749 11.8107C4.01969 14.3327 4.77304 16.9874 6.50759 18.9451C8.17218 20.8532 10.7129 22.0477 13.341 22.1307C15.794 22.2635 18.3522 21.5499 20.1394 19.924C21.5411 18.7791 22.1894 17.0372 22.3997 15.3449C19.4911 15.3449 16.5826 15.3613 13.6739 15.3449V11.927H25.9214C26.5522 15.5937 25.6411 19.7249 22.6975 22.3463C20.7351 24.2046 18.0193 25.2996 15.2509 25.5154C12.5701 25.7642 9.80167 25.283 7.41883 24.0552C4.56272 22.6119 2.28493 20.1728 1.16359 17.3026C0.112412 14.6645 0.0948671 11.678 1.07607 9.02337C1.96956 6.60108 3.68678 4.46082 5.89439 2.96766C8.01449 1.49091 10.5901 0.677881 13.2184 0.528564Z" fill="#C4C4C4"/>
<path fill-rule="evenodd" clip-rule="evenodd" d="M83.4799 1.39136H87.2295V25.084C85.9853 25.084 84.7238 25.1004 83.4799 25.0674C83.4972 17.1864 83.4799 9.28889 83.4799 1.39136Z" fill="#C4C4C4"/>
<path fill-rule="evenodd" clip-rule="evenodd" d="M34.2618 9.60428C36.5747 9.18936 39.0804 9.65392 40.9901 10.9647C42.7247 12.126 43.9338 13.9513 44.3018 15.9422C44.7748 18.2484 44.179 20.7702 42.6021 22.5954C40.9026 24.636 38.1167 25.731 35.4007 25.5651C32.9126 25.4324 30.4947 24.2545 29.0229 22.3298C27.3585 20.2061 26.9554 17.2861 27.8664 14.7973C28.7777 12.126 31.3533 10.0855 34.2618 9.60428ZM34.7875 12.7565C33.8414 12.9889 32.9653 13.5031 32.3345 14.2333C30.6348 16.1578 30.7401 19.2936 32.6148 21.0854C33.6837 22.1142 35.2957 22.5954 36.785 22.3132C38.1691 22.081 39.3782 21.2017 40.044 20.0402C41.2005 18.0659 40.8675 15.3449 39.0979 13.8019C37.959 12.8064 36.2944 12.3916 34.7875 12.7565Z" fill="#C4C4C4"/>
<path fill-rule="evenodd" clip-rule="evenodd" d="M52.8347 9.60423C55.4804 9.12306 58.3714 9.8198 60.3514 11.5786C63.5755 14.3161 63.9258 19.4429 61.1749 22.5953C59.5103 24.5863 56.8121 25.6813 54.1488 25.565C51.6082 25.4988 49.1026 24.3043 47.5957 22.3297C45.8962 20.1562 45.5282 17.1699 46.4919 14.6313C47.4556 12.0431 49.9788 10.0688 52.8347 9.60423ZM53.3603 12.7565C52.4142 12.9889 51.5381 13.5031 50.9073 14.2166C49.2254 16.1081 49.2954 19.1941 51.1001 21.0025C52.1688 22.0809 53.8334 22.6119 55.3754 22.3131C56.7419 22.0643 57.9686 21.2016 58.6344 20.0401C59.7733 18.0492 59.4404 15.3283 57.6532 13.7853C56.5143 12.7897 54.8497 12.3916 53.3603 12.7565Z" fill="#C4C4C4"/>
<path fill-rule="evenodd" clip-rule="evenodd" d="M68.5864 10.5664C70.6014 9.37183 73.2821 9.03997 75.4548 10.0688C76.1382 10.3508 76.6988 10.832 77.242 11.3131L77.2596 9.93607L80.7988 9.95248V24.5862C80.7813 26.7928 80.1856 29.1322 78.5035 30.7416C76.6637 32.5168 73.8429 33.0644 71.3022 32.6994C68.5864 32.3179 66.2209 30.443 65.1697 28.0704C66.2209 27.5892 67.3249 27.2077 68.4112 26.7597C69.0244 28.1202 70.2685 29.2815 71.8278 29.5471C73.3872 29.8125 75.1919 29.4474 76.2082 28.2197C77.2944 26.9587 77.2945 25.2334 77.242 23.6904C76.4361 24.4369 75.5073 25.1004 74.3859 25.3494C71.9504 25.9965 69.2698 25.2001 67.3949 23.6405C65.5026 22.0809 64.3813 19.6752 64.4863 17.286C64.539 14.5815 66.1509 11.9767 68.5864 10.5664ZM72.2134 12.6902C71.1445 12.8561 70.1457 13.4202 69.4623 14.2C67.8155 16.0582 67.8155 19.0281 69.4799 20.8531C70.4262 21.9316 71.9504 22.5289 73.4223 22.3795C74.8066 22.2468 76.0856 21.4172 76.769 20.2725C77.9254 18.3312 77.7326 15.6931 76.1731 14.0008C75.2094 12.9556 73.6677 12.4412 72.2134 12.6902Z" fill="#C4C4C4"/>
<path fill-rule="evenodd" clip-rule="evenodd" d="M91.7322 11.4126C93.8348 9.55431 97.0762 8.92382 99.7746 9.90278C102.333 10.8153 103.962 13.1215 104.786 15.4941C100.983 16.9873 97.1988 18.4638 93.3968 19.9572C93.9225 20.9029 94.7285 21.7656 95.8147 22.1141C97.3392 22.6283 99.1612 22.4459 100.44 21.4836C100.949 21.1185 101.351 20.6373 101.737 20.1728L104.628 21.9978C103.261 23.9391 100.966 25.2995 98.4956 25.5153C95.7621 25.8306 92.8535 24.835 91.0839 22.8108C88.1754 19.6253 88.4557 14.2828 91.7322 11.4126ZM93.6071 14.4819C93.0112 15.295 92.766 16.2903 92.7836 17.2693C95.3241 16.2739 97.8646 15.2784 100.405 14.2664C99.9847 13.3373 98.9687 12.773 97.9348 12.6237C96.2702 12.3417 94.5357 13.1877 93.6071 14.4819Z" fill="#C4C4C4"/>
</svg>
