<svg width="106" height="33" viewBox="0 0 106 33" fill="none" xmlns="http://www.w3.org/2000/svg">
<g clip-path="url(#clip0_3_778)">
<path d="M3.8147e-06 22.7643V0.474736H3.91525V22.7642H3.8147e-06V22.7643V22.7643ZM13.938 6.59402C8.91781 6.59402 5.44396 10.4538 5.44396 14.8718C5.44396 19.8023 9.22328 23.1992 13.977 23.1992C18.4886 23.1992 22.4037 19.8651 22.4037 14.8611C22.4037 10.6534 19.1594 6.59409 13.938 6.59409V6.59402ZM13.8918 10.3713C16.5191 10.3713 18.4527 12.4161 18.4527 14.8859C18.4527 17.5047 16.3206 19.4148 13.9626 19.4148C11.1766 19.4148 9.42309 17.2066 9.42309 14.893C9.42316 12.3571 11.4029 10.3712 13.8918 10.3712V10.3713ZM32.2411 6.59402C27.2211 6.59402 23.7471 10.4538 23.7471 14.8718C23.7471 19.8023 27.5264 23.1992 32.2801 23.1992C36.7917 23.1992 40.7068 19.8651 40.7068 14.8611C40.7068 11.9145 39.4307 10.6071 39.4307 10.6071L40.516 10.2349V7.05723H34.955C34.955 7.05723 33.7493 6.59402 32.2411 6.59402ZM32.195 10.3713C34.8221 10.3713 36.7559 12.4161 36.7559 14.8859C36.7559 17.5047 34.6238 19.4148 32.2659 19.4148C29.4798 19.4148 27.7263 17.2066 27.7263 14.893C27.7264 12.3571 29.7061 10.3712 32.195 10.3712V10.3713ZM36.7282 23.8539C36.7282 26.4725 34.5963 28.397 32.2383 28.397C29.4521 28.397 27.6916 26.1673 27.6916 23.8539H23.7195C23.7195 28.7845 27.4986 32.1811 32.2525 32.1811C36.764 32.1811 40.6791 28.8575 40.6791 23.8539H36.7282ZM42.275 22.7643V7.05723H46.1905V22.7643H42.275ZM49.9924 22.7643V10.5755H47.8928V7.05723H49.9924V2.23387H53.9078V7.05723H56.0641V10.5755H53.9078V22.7643H49.9924ZM46.8174 2.59615C46.8174 4.02807 45.6565 5.18892 44.2247 5.18892C42.7925 5.18892 41.6318 4.02799 41.6318 2.59615C41.6318 1.16416 42.7927 0.0032959 44.2247 0.0032959C45.6566 0.0032959 46.8174 1.16416 46.8174 2.59615ZM64.8668 6.58343C59.8228 6.58343 56.5713 10.4451 56.5713 15.0136C56.5713 19.7347 59.8338 23.2098 64.9484 23.2098C69.7194 23.2098 72.0663 20.2305 72.0663 20.2305L69.449 17.6096C69.449 17.6096 67.4727 19.7412 64.998 19.7412C62.935 19.7412 61.2856 18.5897 60.7101 16.4783H72.9104V15.4002C72.9105 11.0982 70.4205 6.58343 64.8668 6.58343ZM64.7427 10.0307C66.5463 10.0307 68.391 10.9957 68.8035 13.3006H60.6038C60.9284 11.6804 62.346 10.0307 64.7427 10.0307ZM82.7039 23.2119C77.6459 23.2119 74.1993 19.3593 74.1993 14.8171C74.1993 10.1295 78.0945 6.5805 82.6877 6.5805C87.128 6.5805 89.401 9.71504 89.401 9.71504L86.6695 12.4341C86.6695 12.4341 85.0873 10.3898 82.669 10.3898C79.989 10.3898 78.1564 12.4401 78.1564 14.8772C78.1564 17.4504 80.1057 19.4249 82.6389 19.4249C85.0961 19.4249 86.6657 17.384 86.6657 17.384L89.4244 20.1015C89.4244 20.1015 87.1736 23.212 82.7041 23.212H82.7039V23.2118V23.2119ZM90.849 22.7757V0.418077H94.7643V8.63237C94.7643 8.63237 96.2635 6.5805 99.5248 6.5805C103.625 6.5805 106 9.62819 106 13.5262V22.7756H102.084V14.118C102.084 11.4992 100.454 10.4127 98.648 10.4127C96.5901 10.4127 94.7644 11.5838 94.7644 14.3205V22.7757H90.849Z" fill="#C4C4C4"/>
</g>
<defs>
<clipPath id="clip0_3_778">
<rect width="106" height="32.1816" fill="white"/>
</clipPath>
</defs>
</svg>
