<svg width="207" height="41" viewBox="0 0 207 41" fill="none" xmlns="http://www.w3.org/2000/svg">
<circle cx="20.8628" cy="20.8627" r="17.4608" stroke="#142D36" stroke-width="3"/>
<path fill-rule="evenodd" clip-rule="evenodd" d="M39 2L15.0588 15.0588L2 39L25.9412 25.9412L39 2Z" fill="#B84384"/>
<path d="M15.0588 15.0588L14.3405 13.742C14.0877 13.8799 13.8799 14.0877 13.742 14.3405L15.0588 15.0588ZM39 2L40.3168 2.71828C40.6355 2.13412 40.5312 1.40986 40.0607 0.93934C39.5901 0.468822 38.8659 0.364522 38.2817 0.683157L39 2ZM2 39L0.683157 38.2817C0.364522 38.8659 0.468822 39.5901 0.93934 40.0607C1.40986 40.5312 2.13411 40.6355 2.71828 40.3168L2 39ZM25.9412 25.9412L26.6595 27.258C26.9123 27.1201 27.1201 26.9123 27.258 26.6595L25.9412 25.9412ZM15.7771 16.3757L39.7183 3.31684L38.2817 0.683157L14.3405 13.742L15.7771 16.3757ZM3.31684 39.7183L16.3757 15.7771L13.742 14.3405L0.683157 38.2817L3.31684 39.7183ZM25.2229 24.6243L1.28172 37.6832L2.71828 40.3168L26.6595 27.258L25.2229 24.6243ZM37.6832 1.28172L24.6243 25.2229L27.258 26.6595L40.3168 2.71828L37.6832 1.28172Z" fill="white"/>
<path d="M25.9412 25.9412L15.0588 15.0588L39 2L25.9412 25.9412Z" fill="#2A519A"/>
<path d="M15.0588 15.0588L25.9412 25.9412L1.99998 39L15.0588 15.0588Z" fill="#5A90C4"/>
<path d="M63.576 14.59V23.608L57.024 14.59H55.224V28H57.492V18.892L64.044 28H65.862V14.59H63.576ZM72.4785 28.216C75.3045 28.216 77.5725 26.074 77.5725 23.14C77.5725 20.206 75.3225 18.082 72.4785 18.082C69.6165 18.082 67.3845 20.206 67.3845 23.14C67.3845 26.074 69.6345 28.216 72.4785 28.216ZM72.4785 26.218C70.8225 26.218 69.6345 24.94 69.6345 23.158C69.6345 21.376 70.8225 20.08 72.4785 20.08C74.1165 20.08 75.3225 21.376 75.3225 23.158C75.3225 24.94 74.1165 26.218 72.4785 26.218ZM83.5862 18.19C82.3982 18.19 81.4622 18.586 80.9582 19.648V18.298H78.9242V28H81.0842V22.51C81.0842 20.998 81.9842 20.134 83.3162 20.134H84.4862V18.19H83.5862ZM90.255 28.108C90.597 28.108 91.029 28.072 91.371 28.018V26.29C91.137 26.326 90.903 26.344 90.723 26.344C89.355 26.344 89.013 25.57 89.013 24.742V20.242H91.317V18.298H89.013V15.292H86.853V16.84C86.853 17.776 86.313 18.298 85.377 18.298H85.089V20.242H86.853V24.742C86.853 26.884 88.077 28.108 90.255 28.108ZM97.5026 18.082C96.3866 18.082 95.4326 18.496 94.8746 19.252V14.59H92.7146V28H94.8746V22.24C94.8746 20.926 95.7026 20.08 96.9446 20.08C98.1686 20.08 98.9966 20.926 98.9966 22.24V28H101.157V21.7C101.157 19.558 99.6626 18.082 97.5026 18.082ZM106.56 28.216C108.774 28.216 110.304 27.028 110.304 25.282C110.304 23.932 109.404 22.96 107.73 22.492L106.002 22.006C105.444 21.844 104.832 21.538 104.832 20.926C104.832 20.314 105.39 19.9 106.29 19.9C107.388 19.9 108.252 20.458 108.612 21.376L110.304 20.584C109.71 19.036 108.198 18.082 106.29 18.082C104.148 18.082 102.69 19.27 102.69 21.016C102.69 22.33 103.536 23.32 105.228 23.788L106.884 24.22C107.478 24.382 108.162 24.67 108.162 25.336C108.162 26.002 107.532 26.452 106.56 26.452C105.408 26.452 104.454 25.84 103.95 24.688L102.276 25.498C102.888 27.19 104.544 28.216 106.56 28.216ZM115.977 28.108C116.319 28.108 116.751 28.072 117.093 28.018V26.29C116.859 26.326 116.625 26.344 116.445 26.344C115.077 26.344 114.735 25.57 114.735 24.742V20.242H117.039V18.298H114.735V15.292H112.575V16.84C112.575 17.776 112.035 18.298 111.099 18.298H110.811V20.242H112.575V24.742C112.575 26.884 113.799 28.108 115.977 28.108ZM122.36 18.082C120.434 18.082 118.814 19.108 118.256 20.584L120.128 21.52C120.488 20.602 121.316 20.026 122.36 20.026C123.44 20.026 124.178 20.62 124.178 21.52V21.826L120.992 22.51C119.03 22.942 117.896 23.896 117.896 25.336C117.896 26.992 119.264 28.216 121.424 28.216C122.594 28.216 123.584 27.784 124.304 26.92V28H126.338V21.52C126.338 19.504 124.718 18.082 122.36 18.082ZM121.676 26.506C120.74 26.506 120.146 26.056 120.146 25.318C120.146 24.724 120.614 24.256 121.424 24.076L124.178 23.464V24.094C124.178 25.462 123.116 26.506 121.676 26.506ZM132.551 18.19C131.363 18.19 130.427 18.586 129.923 19.648V18.298H127.889V28H130.049V22.51C130.049 20.998 130.949 20.134 132.281 20.134H133.451V18.19H132.551ZM140.773 14.59H138.811L133.951 28H135.751L136.867 24.796H142.717L143.833 28H145.633L140.773 14.59ZM137.389 23.302L139.801 16.444L142.195 23.302H137.389ZM151.293 18.244C150.123 18.244 149.097 18.73 148.539 19.558V18.46H147.027V28H148.575V22.222C148.575 20.728 149.529 19.738 150.951 19.738C152.391 19.738 153.309 20.71 153.309 22.222V28H154.857V21.718C154.857 19.72 153.363 18.244 151.293 18.244ZM160.538 18.244C158.774 18.244 157.226 19.252 156.686 20.548L158.072 21.268C158.486 20.332 159.386 19.72 160.538 19.72C161.798 19.72 162.698 20.44 162.698 21.538V21.808L159.386 22.546C157.46 22.978 156.326 23.95 156.326 25.354C156.326 27.028 157.694 28.216 159.728 28.216C160.952 28.216 162.086 27.622 162.734 26.668V28H164.246V21.538C164.246 19.594 162.716 18.244 160.538 18.244ZM159.818 26.83C158.684 26.83 157.964 26.254 157.964 25.354C157.964 24.58 158.666 23.986 159.746 23.752L162.698 23.068V23.896C162.698 25.57 161.492 26.83 159.818 26.83ZM166.09 28H167.638V14.59H166.09V28ZM176.562 18.442L173.628 25.822L170.694 18.442H168.93L172.746 27.91L172.332 28.9C172.044 29.566 171.684 30.43 170.28 30.43C169.902 30.43 169.47 30.376 169.29 30.322V31.708C169.65 31.852 170.118 31.906 170.55 31.906C172.782 31.906 173.466 30.394 173.952 29.188L178.362 18.442H176.562ZM183.648 28.108C183.918 28.108 184.296 28.09 184.602 28.018V26.758C184.404 26.794 184.134 26.812 183.936 26.812C182.298 26.812 182.19 25.696 182.19 25.084V19.936H184.494V18.46H182.19V15.364H180.642V17.056C180.642 17.902 180.102 18.46 179.274 18.46H178.788V19.936H180.642V25.084C180.642 27.01 181.722 28.108 183.648 28.108ZM186.114 16.696H187.662V14.59H186.114V16.696ZM186.114 28H187.662V18.46H186.114V28ZM193.946 28.216C195.8 28.216 197.402 27.1 197.996 25.696L196.61 24.976C196.142 26.02 195.188 26.722 193.946 26.722C192.146 26.722 190.814 25.21 190.814 23.23C190.814 21.214 192.146 19.738 193.946 19.738C195.188 19.738 196.142 20.44 196.61 21.484L197.996 20.764C197.402 19.342 195.818 18.244 193.946 18.244C191.21 18.244 189.176 20.35 189.176 23.212C189.176 26.074 191.21 28.216 193.946 28.216ZM202.798 28.216C204.85 28.216 206.272 27.082 206.272 25.426C206.272 24.148 205.408 23.212 203.806 22.744L202.186 22.258C201.358 22.006 200.818 21.574 200.818 20.926C200.818 20.17 201.502 19.666 202.528 19.666C203.662 19.666 204.562 20.26 204.958 21.286L206.254 20.656C205.696 19.162 204.292 18.244 202.528 18.244C200.548 18.244 199.216 19.36 199.216 21.016C199.216 22.312 200.044 23.23 201.646 23.68L203.212 24.112C204.094 24.364 204.67 24.742 204.67 25.426C204.67 26.218 203.914 26.794 202.798 26.794C201.61 26.794 200.584 26.164 200.098 24.958L198.784 25.606C199.396 27.226 200.926 28.216 202.798 28.216Z" fill="#32383C"/>
</svg>
